<svg xmlns="http://www.w3.org/2000/svg" viewBox="0 0 64 64" role="img" aria-label="URLTracker">
  <rect width="64" height="64" rx="12" fill="#0b1021"/>
  <path d="M12 32c0-11 9-20 20-20 4.2 0 8 1.3 11.2 3.5l-3.5 3.5A14 14 0 0 0 32 16C22.6 16 15 23.6 15 33s7.6 17 17 17c3.8 0 7.3-1.2 10.1-3.3l3.4 3.5A20.8 20.8 0 0 1 32 52C21 52 12 43 12 32Z" fill="#38bdf8"/>
  <path d="M24 32a8 8 0 0 1 8-8c1.8 0 3.4.6 4.7 1.6l-3.7 3.7H42v-8l-2.6 2.6A12 12 0 0 0 32 20c-6.6 0-12 5.4-12 12s5.4 12 12 12a12 12 0 0 0 7.4-2.5L42 46v-8h-8l3.5 3.5A8 8 0 0 1 24 32Z" fill="#a5b4fc"/>
</svg>
